<svg xmlns="http://www.w3.org/2000/svg" xmlns:xlink="http://www.w3.org/1999/xlink" preserveAspectRatio="xMidYMid" width="36.31" height="48" viewBox="0 0 36.31 48">
  <defs>
    <style>
      .cls-1 {
        fill: #fff;
        fill-rule: evenodd;
      }
    </style>
  </defs>
  <path d="M36.305,29.181 L34.078,26.419 C32.762,24.787 30.679,24.132 28.752,24.544 C29.575,22.763 29.384,20.599 28.067,18.966 L25.841,16.205 L24.279,26.466 L22.075,28.095 L20.584,25.328 C20.332,24.860 20.285,24.335 20.304,23.805 L20.316,7.694 C20.316,7.694 21.804,7.985 22.661,7.994 C24.283,8.010 25.670,6.992 26.198,5.558 L20.317,5.499 L20.319,3.618 C20.319,3.618 22.211,2.950 23.059,2.759 C26.893,1.893 30.711,2.870 33.591,5.096 L33.719,4.972 C30.801,1.174 25.840,-0.809 20.848,0.318 C19.822,0.550 18.854,0.900 17.955,1.350 C17.377,1.640 16.832,1.991 16.303,2.362 L8.270,7.919 L8.891,9.509 L11.604,9.511 C11.130,10.698 10.475,11.344 9.539,11.962 L9.585,12.119 C11.628,12.078 13.422,11.066 14.523,9.513 L16.327,9.514 L10.384,16.862 L8.949,13.971 L5.492,13.936 C2.844,13.909 0.675,16.022 0.648,18.655 L3.993,18.689 L3.570,16.467 L7.250,16.505 L7.201,21.162 L2.221,21.038 L0.582,24.064 C-0.675,26.383 0.198,29.275 2.528,30.524 L4.116,27.595 L1.941,26.934 L3.686,23.712 L7.605,25.812 C8.011,26.970 8.703,28.023 9.639,28.859 L15.858,34.412 L14.598,33.307 L13.657,34.032 C11.658,35.443 10.459,37.722 10.434,40.160 C10.389,44.448 13.847,47.958 18.157,48.002 L18.387,48.005 C22.570,48.047 25.997,44.710 26.042,40.549 L26.043,40.320 C26.077,37.192 25.315,34.106 23.829,31.349 L23.510,30.756 L26.161,28.470 L36.305,29.181 ZM15.463,6.144 C15.469,5.602 15.916,5.167 16.461,5.172 C17.007,5.178 17.445,5.622 17.439,6.164 C17.434,6.707 16.986,7.142 16.441,7.137 C15.896,7.131 15.458,6.687 15.463,6.144 ZM20.024,40.160 C20.009,41.623 18.805,42.796 17.310,42.781 L17.183,42.780 C15.719,42.765 14.545,41.572 14.560,40.116 L14.561,40.028 C14.575,38.735 15.174,37.517 16.192,36.713 L17.398,35.787 L18.594,36.855 C19.516,37.679 20.038,38.858 20.025,40.091 L20.024,40.160 Z" class="cls-1"/>
</svg>
